# xmcd
#
# Track frame offsets: 
#        150
#        30146
#        62156
#        73388
#        99228
#        129404
#        139727
#        141916
#        154621
#        156641
#        167163
#        174591
#        189050
#        205763
#        209844
#        219210
#        220655
#        222464
#        235410
#        237496
#        238827
#        250822
#        252630
#        268332
#        270716
#        273373
#        274176
#        278481
#        290340
#        302987
#        304387
#        319717
#        322461
#        323707
#        324505
#        335882
#        337117
#        338360
#        340158
#        341636
#
# Disc length: 4617 seconds
#
# Revision: 0
# Processed by: cddbd v1.5.2PL0 Copyright (c) Steve Scherf et al.
# Submitted via: ExactAudioCopy v0.95b3
#
DISCID=8e120728
DTITLE=The Beatles  - The Beatles Deluxe - Disc 10 - The Beatles Go To
DTITLE=o Far  PC-140  FLAC
DYEAR=1900
DGENRE=
TTITLE0=What's The New Mary Jane - RS4
TTITLE1=What's The New Mary Jane - RS5
TTITLE2=What's The New Mary Jane - RS6
TTITLE3=What's The New Mary Jane
TTITLE4=What's The New Mary Jane
TTITLE5=I'm So Tired b
TTITLE6=I'm So Tired c
TTITLE7=I'm So Tired d
TTITLE8=I'm So Tired e
TTITLE9=I'm So Tired f
TTITLE10=I'm So Tired g
TTITLE11=While My Guitar Gently Weeps a
TTITLE12=While My Guitar Gently Weeps b
TTITLE13=While My Guitar Gently Weeps c
TTITLE14=While My Guitar Gently Weeps d
TTITLE15=Don't Pass Me By - take 3
TTITLE16=Goodnight - take unknown
TTITLE17=Ob-La-Di Ob-La-Da - take 5
TTITLE18=Ob-La-Di Ob-La-Da - take 21
TTITLE19=Sexy Sadie - unknown take and chat
TTITLE20=Good Night
TTITLE21=Sexy Sadie - take 28
TTITLE22=While My Guitar Gently Weeps
TTITLE23=While My Guitar Gently Weeps - take 1 harmonium
TTITLE24=Hey Jude - take 7
TTITLE25=Hey Jude - chat
TTITLE26=St Louis Blues
TTITLE27=Hey Jude - take 9 partial
TTITLE28=Hey Jude - take 9
TTITLE29=Mother Nature's Son - take unknown
TTITLE30=Not Guilty
TTITLE31=What's The New Mary Jane - take 2
TTITLE32=Rocky Raccoon - take 9
TTITLE33=I Will - take 1
TTITLE34=Step Inside Love-Los Paranoias
TTITLE35=Piggies - take unknown
TTITLE36=I'm So Tired - take 14
TTITLE37=Why Don't We Do It In The Road - takes 4+5
TTITLE38=Julia - take 3 partial
TTITLE39=While My Guitar Gently Weeps - orchestra session
EXTD=
EXTT0=
EXTT1=
EXTT2=
EXTT3=
EXTT4=
EXTT5=
EXTT6=
EXTT7=
EXTT8=
EXTT9=
EXTT10=
EXTT11=
EXTT12=
EXTT13=
EXTT14=
EXTT15=
EXTT16=
EXTT17=
EXTT18=
EXTT19=
EXTT20=
EXTT21=
EXTT22=
EXTT23=
EXTT24=
EXTT25=
EXTT26=
EXTT27=
EXTT28=
EXTT29=
EXTT30=
EXTT31=
EXTT32=
EXTT33=
EXTT34=
EXTT35=
EXTT36=
EXTT37=
EXTT38=
EXTT39=
PLAYORDER=
